<svg role="img" aria-label="Clawdio" xmlns="http://www.w3.org/2000/svg" viewBox="-1.6 -3.8 36 36" width="512" height="512"><defs><mask id="clawdio-seam" maskUnits="userSpaceOnUse" x="-12" y="-12" width="56" height="56"><rect x="-12" y="-12" width="56" height="56" fill="#fff"/><g transform="rotate(12 16 18)"><path d="M5.2 18.3 Q7.6 19.9 10 19.3" fill="none" stroke="#000" stroke-width="1" stroke-linecap="round"/></g></mask></defs><g transform="rotate(12 16 18)"><rect transform="rotate(-12 15.6 12.4)" fill="#ff66c4" x="16.900000000000002" y="-1.1999999999999993" width="1.7" height="13.6" rx=".6"/><g fill="#ff7a59" mask="url(#clawdio-seam)"><path d="M6.8 19.6 Q3.2 8.4 10.6 3.2 Q14.4 0.6 17.9 1.5 Q13.4 3.8 11.9 8.4 Q10.8 12.2 12.2 16.8 Z"/><path d="M25.4 19.6 Q27.6 13.6 26.2 9 Q24.8 5.4 20.8 4.1 Q22.4 7.6 21.9 11 Q21.4 14.2 19.4 16.8 Z"/><path d="M6.4 20.6 C5.6 14.6 26.4 14.6 25.6 20.6 C25.2 25.4 22.4 28 19.8 29 L19.4 36 L12.6 36 L12.2 29 C9.6 28 6.8 25.4 6.4 20.6 Z"/><circle cx="21.95" cy="9.1" r="1"/><circle cx="21.7" cy="12.3" r="1"/></g><ellipse fill="#ff66c4" cx="15.6" cy="12.4" rx="3.35" ry="2.45" transform="rotate(-12 15.6 12.4) rotate(-24 15.6 12.4)"/></g></svg>